<?xml version="1.0" encoding="UTF-8" standalone="no" ?>
<!DOCTYPE svg PUBLIC "-//W3C//DTD SVG 1.1//EN" "http://www.w3.org/Graphics/SVG/1.1/DTD/svg11.dtd">
<svg xmlns="http://www.w3.org/2000/svg" xmlns:xlink="http://www.w3.org/1999/xlink" version="1.1" width="640" height="480" viewBox="0 0 640 480" xml:space="preserve">
<desc>Created with Fabric.js 3.6.6</desc>
<defs>
</defs>
<g transform="matrix(-2.6 0 0 -2.6 151.76 274.76)"  >
<polygon style="stroke: rgb(0,0,0); stroke-width: 8; stroke-dasharray: none; stroke-linecap: butt; stroke-dashoffset: 0; stroke-linejoin: miter; stroke-miterlimit: 4; fill: none; fill-rule: nonzero; opacity: 1;" vector-effect="non-scaling-stroke"  points="-50,-50 -50,50 50,50 50,-50 " />
</g>
<g transform="matrix(1.34 0 0 1.72 5432.4 274.46)" style=""  >
		<text xml:space="preserve" font-family="'Open Sans', sans-serif" font-size="111" font-style="normal" font-weight="bold" style="stroke: rgb(207,16,16); stroke-opacity: 0; stroke-width: 8; stroke-dasharray: none; stroke-linecap: butt; stroke-dashoffset: 0; stroke-linejoin: round; stroke-miterlimit: 4; fill: rgb(0,0,0); fill-rule: nonzero; opacity: 1; white-space: pre;" ><tspan x="-3835.11" y="34.87" >S</tspan><tspan x="-3792.97" y="34.87" >S</tspan><tspan x="-3750.83" y="34.87" >S</tspan><tspan x="-3708.7" y="34.87" >P</tspan></text>
</g>
<g transform="matrix(2.34 0 0 2.34 151.54 271.54)"  >
<path style="stroke: rgb(0,0,0); stroke-width: 8; stroke-dasharray: none; stroke-linecap: butt; stroke-dashoffset: 0; stroke-linejoin: miter; stroke-miterlimit: 10; fill: none; fill-rule: evenodd; opacity: 1;" vector-effect="non-scaling-stroke"  transform=" translate(-59.83, -59.83)" d="m 0.005249344 59.82677 l 26.922047 -19.30849 l 0 9.424511 l 23.020744 0 l 0 -23.020744 l -9.424511 0 l 19.30849 -26.922047 l 19.30849 26.922047 l -9.424507 0 l 0 23.020744 l 23.020744 0 l 0 -9.424511 l 26.922043 19.30849 l -26.922043 19.30849 l 0 -9.424507 l -23.020744 0 l 0 23.020744 l 9.424507 0 l -19.30849 26.922043 l -19.30849 -26.922043 l 9.424511 0 l 0 -23.020744 l -23.020744 0 l 0 9.424507 z" stroke-linecap="round" />
</g>
</svg>